<?xml version="1.0" encoding="utf-8"?><svg viewBox="0 0 259 38" xmlns="http://www.w3.org/2000/svg" xmlns:xlink="http://www.w3.org/1999/xlink"><style>:root>svg{display:none}:root>svg:target{display:block}</style><svg viewBox="0 0 259 24" id="icon-arrow-long" xmlns="http://www.w3.org/2000/svg"><path d="M258.061 13.06a1.502 1.502 0 000-2.12l-9.546-9.547a1.5 1.5 0 00-2.122 2.122L254.879 12l-8.486 8.485a1.501 1.501 0 002.122 2.122l9.546-9.546zM0 13.5h257v-3H0v3z"/></svg><svg viewBox="0 0 46 38" id="icon-folder" xmlns="http://www.w3.org/2000/svg"><path d="M5 0C2.25 0 0 2.25 0 5v28a5 5 0 005 5h36a5 5 0 005-5V5c0-2.75-2.25-5-5-5H5zm0 2h36c1.669 0 3 1.332 3 3v2.03A4.948 4.948 0 0041 6H5c-1.128 0-2.16.393-3 1.03V5c0-1.668 1.332-3 3-3zm0 6h36c1.669 0 3 1.332 3 3v2.03A4.948 4.948 0 0041 12H5c-1.128 0-2.16.393-3 1.03V11c0-1.668 1.332-3 3-3zm0 6h36c1.669 0 3 1.332 3 3v2H33.615a5.727 5.727 0 00-5.12 3.164l-.374.748C27.151 24.852 25.17 26 23 26c-2.169 0-4.15-1.149-5.12-3.088l-.372-.748A5.727 5.727 0 0012.385 19H2v-2c0-1.668 1.332-3 3-3zm-3 7h10.385c1.42 0 2.697.79 3.332 2.06l.373.747C17.384 26.393 20.032 28 23 28c2.967 0 5.614-1.606 6.91-4.193l.375-.748A3.704 3.704 0 0133.615 21H44v12c0 1.654-1.346 3-3 3H5c-1.654 0-3-1.346-3-3V21z"/></svg><svg viewBox="0 0 38 38" id="icon-home" xmlns="http://www.w3.org/2000/svg"><path d="M18.994 0a.826.826 0 00-.384.098L.436 9.845a.826.826 0 00-.436.73v3.717a.826.826 0 001.22.726l.432-.234v22.39a.826.826 0 00.826.826h33.044a.826.826 0 00.826-.826v-22.39l.432.234a.826.826 0 001.22-.726v-3.717a.826.826 0 00-.436-.73L19.39.098A.826.826 0 0018.994 0zM19 1.764l17.348 9.304v1.836l-16.954-9.17a.826.826 0 00-.788 0l-16.954 9.17v-1.836L19 1.764zM19 5.4l15.696 8.49v22.458H3.304V13.89L19 5.4zm-.826 7.817v1.735c-2.844.3-4.606 1.984-4.606 4.429 0 6.229 9.26 3.302 9.26 7.6 0 1.66-1.556 2.768-3.828 2.768s-3.773-1.265-3.896-2.778h-1.932c.012 2.479 1.976 4.241 5.002 4.486v1.587h1.652V31.44c3.133-.282 4.957-1.965 4.957-4.617 0-6.137-9.273-3.673-9.273-7.556 0-1.412 1.253-2.587 3.49-2.587s3.523 1.265 3.569 2.677h1.92c-.079-2.426-1.909-4.149-4.663-4.414v-1.727h-1.652z"/></svg><svg viewBox="0 0 58 38" id="icon-letter" xmlns="http://www.w3.org/2000/svg"><path d="M1.025 0C.424.114-.01.648 0 1.267v35.466C0 37.431.567 38 1.261 38h55.478c.695 0 1.261-.569 1.261-1.267V1.267C58 .569 57.434 0 56.74 0H1.024zm1.497 2.533h52.956v32.934H2.522V2.533zM29 7.442l-.59.316-2.286 1.188-2.483.356-.67.119-.275.554-1.182 2.335-1.813 1.782-.433.475.079.633.433 2.533-.433 2.534-.08.633.434.475 1.813 1.781.551 1.069-4.413 6.096 2.798.237 1.537 2.375 3.23-6.53.907.118 2.285 1.187.591.317.591-.317 2.285-1.187.907-.119 3.23 6.531 1.537-2.375 2.798-.237-4.413-6.096.551-1.069 1.813-1.781.433-.475-.078-.633-.434-2.534.434-2.533.078-.633-.433-.475-1.813-1.782-1.182-2.335-.275-.554-.67-.119-2.483-.356-2.285-1.188-.59-.316zm0 2.85l1.891.99.158.078.236.04 2.05.317.945 1.9.118.198.158.118 1.497 1.505-.355 2.097-.039.198.04.198.354 2.098-1.497 1.504-.158.12-.118.197-.946 1.9-2.049.317-.236.04-.158.078-1.89.99-1.892-.99-.158-.079-.236-.04-2.05-.316-.945-1.9-.118-.198-.158-.119-1.497-1.504.355-2.098.04-.198-.04-.198-.355-2.098 1.497-1.504.158-.118.118-.198.946-1.9 2.049-.317.236-.04.158-.079 1.891-.99z"/></svg><svg viewBox="0 0 38 38" id="icon-time" xmlns="http://www.w3.org/2000/svg"><path d="M18.174 0v7.435a.827.827 0 101.652 0v-5.7C29.024 2.173 36.348 9.691 36.348 19c0 9.591-7.757 17.348-17.348 17.348S1.652 28.59 1.652 19A17.28 17.28 0 016.31 7.172.826.826 0 105.1 6.046 18.949 18.949 0 000 19c0 10.484 8.516 19 19 19s19-8.516 19-19C38 8.517 29.484 0 19 0h-.826zM9.913 9.913s6.367 9.871 7.335 10.84a2.478 2.478 0 103.504-3.505c-.968-.968-10.839-7.335-10.839-7.335z"/></svg><svg viewBox="0 0 24 24" id="icon-whatsup" xmlns="http://www.w3.org/2000/svg"><path d="M12 0C5.373 0 0 5.373 0 12c0 2.251.632 4.35 1.71 6.15L.108 24l5.975-1.568A11.934 11.934 0 0012 24c6.627 0 12-5.373 12-12S18.627 0 12 0zM7.893 6.402c.195 0 .395 0 .568.008.214.005.447.02.67.514.265.586.842 2.056.916 2.205.074.149.126.324.023.52-.098.2-.149.32-.293.498-.149.171-.312.385-.447.515-.149.15-.303.313-.13.61.171.296.769 1.27 1.652 2.056 1.135 1.014 2.092 1.326 2.39 1.475.298.149.47.125.643-.075.177-.194.743-.864.943-1.162.195-.298.394-.246.664-.148.274.098 1.735.818 2.033.967.298.149.494.223.569.344.077.125.077.72-.17 1.414-.247.693-1.46 1.363-2.004 1.41-.55.05-1.061.246-3.568-.74-3.024-1.191-4.932-4.289-5.08-4.489-.15-.195-1.211-1.61-1.211-3.07 0-1.465.768-2.183 1.037-2.48.274-.299.595-.372.795-.372z"/></svg></svg>